<svg width="103" height="103" viewBox="0 0 103 103" fill="none" xmlns="http://www.w3.org/2000/svg">
<path d="M81.257 95.6398H21.743V103H81.257V95.6398Z" fill="white"/>
<path d="M72.758 77.5031H30.1577V91.4853H72.758V77.5031Z" fill="white"/>
<path d="M0 0V73.4118H103V0H0ZM97.3692 65.6509C97.3692 66.7897 96.4623 67.6966 95.3235 67.6966H7.6765C6.53767 67.6966 5.63084 66.7897 5.63084 65.6509V7.76085C5.63084 6.62203 6.53767 5.71519 7.6765 5.71519H95.3235C96.4623 5.71519 97.3692 6.62203 97.3692 7.76085V65.6509Z" fill="white"/>
<path d="M9.72217 63.6053H93.2779V9.80652H9.72217V63.6053ZM65.3135 40.9554C65.3135 40.5547 65.5666 40.2172 65.8829 40.0485L77.4187 34.734L65.8829 29.5039C65.5455 29.3352 65.3135 29.0188 65.3135 28.5971V24.4636C65.3135 23.7676 66.0305 23.3247 66.6421 23.62L84.0197 31.6972C84.3571 31.8659 84.5891 32.1822 84.5891 32.604V37.1804C84.5891 37.5811 84.336 37.9185 84.0197 38.0872L66.6421 46.0801C66.0094 46.3753 65.2924 45.9114 65.2924 45.2154V40.9554H65.3135ZM39.7533 53.398L55.739 19.128C55.9077 18.7905 56.224 18.5586 56.6458 18.5586H60.2731C61.0113 18.5586 61.5174 19.3389 61.2011 20.0137L45.1943 54.2838C45.0256 54.6212 44.7093 54.8532 44.2875 54.8532H40.6601C39.9431 54.8532 39.4369 54.0729 39.7533 53.398ZM18.4742 32.6251C18.4742 32.2244 18.7273 31.887 19.0436 31.7183L36.4423 23.6411C37.0539 23.3458 37.7709 23.8098 37.7709 24.4847V28.7025C37.7709 29.1032 37.5178 29.4406 37.2015 29.6093L25.6657 34.8395L37.2015 40.154C37.5389 40.3227 37.7709 40.639 37.7709 41.0608V45.363C37.7709 46.0379 37.075 46.5019 36.4423 46.2066L19.0436 38.2138C18.7062 38.0451 18.4742 37.7287 18.4742 37.3069V32.6251Z" fill="white"/>
</svg>
